<svg width="200" height="200" viewBox="0 0 200 200" xmlns="http://www.w3.org/2000/svg" role="img" aria-label="Fenix">
  <defs>
    <linearGradient id="g1" x1="0%" y1="0%" x2="100%" y2="100%">
      <stop offset="0%" stop-color="#6C48ED"/>
      <stop offset="100%" stop-color="#FA7355"/>
    </linearGradient>
  </defs>
  <rect width="200" height="200" rx="32" fill="#ffffff"/>
  <path d="M38 63c0-4 2-7 6-9l54-31c3-2 7-2 10 0l54 31c4 2 6 5 6 9v74c0 4-2 7-6 9l-54 31c-3 2-7 2-10 0l-54-31c-4-2-6-5-6-9V63z" fill="url(#g1)" opacity="0.12"/>
  <path d="M52 66c0-3 1-5 4-7l44-25c3-1 6-1 8 0l44 25c3 2 4 4 4 7v61c0 3-1 6-4 7l-44 25c-2 2-5 2-8 0l-44-25c-3-1-4-4-4-7V66z" fill="#6C48ED"/>
  <path d="M101 38c2-1 4-1 6 0l36 21c2 1 3 3 3 5v45c0 2-1 4-3 5l-36 21c-2 1-4 1-6 0l-36-21c-2-1-3-3-3-5V64c0-2 1-4 3-5l36-21z" fill="#fff"/>
  <path d="M121 63c2 0 3 2 2 3l-8 16c-1 2-1 4 1 6l10 10c2 2 2 4 0 6l-26 26c-2 2-6 1-6-2V70c0-2 1-3 3-3h24z" fill="#FA7355"/>
</svg>
